<?xml version="1.0" encoding="UTF-8" standalone="no"?>
<!-- Created with Inkscape (http://www.inkscape.org/) -->

<svg
   xmlns:dc="http://purl.org/dc/elements/1.1/"
   xmlns:cc="http://creativecommons.org/ns#"
   xmlns:rdf="http://www.w3.org/1999/02/22-rdf-syntax-ns#"
   xmlns:svg="http://www.w3.org/2000/svg"
   xmlns="http://www.w3.org/2000/svg"
   xmlns:sodipodi="http://sodipodi.sourceforge.net/DTD/sodipodi-0.dtd"
   xmlns:inkscape="http://www.inkscape.org/namespaces/inkscape"
   id="svg2"
   version="1.1"
   inkscape:version="0.92.2 2405546, 2018-03-11"
   width="323.42113"
   height="273.75876"
   xml:space="preserve"
   sodipodi:docname="a-tesseroid.svg"
   inkscape:export-filename="a-tesseroid.png"
   inkscape:export-xdpi="800"
   inkscape:export-ydpi="800"><metadata
     id="metadata8"><rdf:RDF><cc:Work
         rdf:about=""><dc:format>image/svg+xml</dc:format><dc:type
           rdf:resource="http://purl.org/dc/dcmitype/StillImage" /><dc:title /></cc:Work></rdf:RDF></metadata><defs
     id="defs6"><marker
       inkscape:stockid="Arrow1Mend"
       orient="auto"
       refY="0.0"
       refX="0.0"
       id="Arrow1Mend"
       style="overflow:visible;"><path
         id="path4059"
         d="M 0.0,0.0 L 5.0,-5.0 L -12.5,0.0 L 5.0,5.0 L 0.0,0.0 z "
         style="fill-rule:evenodd;stroke:#000000;stroke-width:1.0pt;marker-start:none;"
         transform="scale(0.4) rotate(180) translate(10,0)" /></marker></defs><sodipodi:namedview
     pagecolor="#ffffff"
     bordercolor="#666666"
     borderopacity="1"
     objecttolerance="10"
     gridtolerance="10"
     guidetolerance="10"
     inkscape:pageopacity="0"
     inkscape:pageshadow="2"
     inkscape:window-width="3200"
     inkscape:window-height="1800"
     id="namedview4"
     showgrid="false"
     inkscape:zoom="3.4482914"
     inkscape:cx="191.38524"
     inkscape:cy="152.36531"
     inkscape:window-x="0"
     inkscape:window-y="0"
     inkscape:window-maximized="0"
     inkscape:current-layer="g10" /><g
     id="g10"
     inkscape:groupmode="layer"
     inkscape:label="tesseroid_coordsys"
     transform="matrix(1.25,0,0,-1.25,0,273.75875)">





<g
   id="g912"
   transform="matrix(0.93774735,0,0,0.93774735,7.7428661,7.3514962)"><text
     style="line-height:0%"
     y="-206.01485"
     x="157.12009"
     transform="scale(1,-1)"
     id="text14"><tspan
       style="font-variant:normal;font-weight:normal;font-size:11.19999981px;font-family:'DejaVu Sans';-inkscape-font-specification:DejaVuSans;writing-mode:lr-tb;fill:#000000;fill-opacity:1;fill-rule:nonzero;stroke:none"
       x="157.12009"
       y="-206.01485"
       id="tspan16">Z</tspan></text>
<text
     style="line-height:0%"
     y="-19.96607"
     x="3.5918"
     transform="scale(1,-1)"
     id="text22"><tspan
       style="font-variant:normal;font-weight:normal;font-size:11.19999981px;font-family:'DejaVu Sans';-inkscape-font-specification:DejaVuSans;writing-mode:lr-tb;fill:#000000;fill-opacity:1;fill-rule:nonzero;stroke:none"
       x="3.5918"
       y="-19.96607"
       id="tspan24">X</tspan></text>
<text
     style="line-height:0%"
     y="-13.920123"
     x="243.33861"
     transform="scale(1,-1)"
     id="text30"><tspan
       style="font-variant:normal;font-weight:normal;font-size:12px;font-family:'DejaVu Sans';-inkscape-font-specification:DejaVuSans;writing-mode:lr-tb;fill:#000000;fill-opacity:1;fill-rule:nonzero;stroke:none"
       x="243.33861"
       y="-13.920123"
       id="tspan32">Y</tspan></text>
<text
     style="line-height:0%"
     y="-61.253803"
     x="162.32716"
     transform="scale(1,-1)"
     id="text72"><tspan
       style="font-variant:normal;font-weight:normal;font-size:11.19999981px;font-family:'Bitstream Charter';-inkscape-font-specification:BitstreamVeraSans;writing-mode:lr-tb;fill:#000000;fill-opacity:1;fill-rule:nonzero;stroke:none"
       x="162.32716"
       y="-61.253803"
       id="tspan74">r</tspan></text>
<text
     style="line-height:0%"
     y="-33.315144"
     x="170.87801"
     transform="scale(1,-1)"
     id="text76"><tspan
       style="font-variant:normal;font-weight:normal;font-size:11.19999981px;font-family:'DejaVu Sans';-inkscape-font-specification:DejaVuSans;writing-mode:lr-tb;fill:#000000;fill-opacity:1;fill-rule:nonzero;stroke:none"
       x="170.87801"
       y="-33.315144"
       id="tspan78">φ</tspan><tspan
       style="font-variant:normal;font-weight:normal;font-size:11.19999981px;font-family:'DejaVu Sans';-inkscape-font-specification:DejaVuSans;writing-mode:lr-tb;fill:#000000;fill-opacity:1;fill-rule:nonzero;stroke:none"
       x="131.88818"
       y="-8.5217819"
       id="tspan80">λ</tspan></text>
<g
     id="g82"
     transform="matrix(1,0,0,-1,0,219.007)"><path
       d="m 108.32,194.363 c 10.75,4.961 35.731,7.606 52.93,2.02"
       style="fill:none;stroke:#000000;stroke-width:1.03999996;stroke-linecap:butt;stroke-linejoin:miter;stroke-miterlimit:4;stroke-dasharray:none;stroke-opacity:1"
       id="path84"
       inkscape:connector-curvature="0" /></g><g
     id="g86"
     transform="matrix(-1,-0.32486,-0.32486,1,0,219.007)"><path
       d="m -84.193,-225.019 1.978,-1.978 -6.923,1.977 6.923,1.98 z"
       style="fill:#000000;fill-opacity:1;fill-rule:evenodd;stroke:#000000;stroke-width:0.49455801;stroke-linecap:butt;stroke-linejoin:miter;stroke-miterlimit:4;stroke-dasharray:none;stroke-opacity:1"
       id="path88"
       inkscape:connector-curvature="0" /></g><g
     id="g90"
     transform="matrix(1,0,0,-1,0,219.007)"><path
       d="M 151.719,188.637 177.984,139.34"
       style="fill:none;stroke:#000000;stroke-width:1.03999996;stroke-linecap:butt;stroke-linejoin:miter;stroke-miterlimit:4;stroke-dasharray:none;stroke-opacity:1"
       id="path92"
       inkscape:connector-curvature="0" /></g><g
     id="g94"
     transform="matrix(-0.532787,-1,-1,0.532787,0,219.007)"><path
       d="m 38.343,-196.456 1.834,-1.836 -6.424,1.836 6.426,1.834 z"
       style="fill:#000000;fill-opacity:1;fill-rule:evenodd;stroke:#000000;stroke-width:0.45892799;stroke-linecap:butt;stroke-linejoin:miter;stroke-miterlimit:4;stroke-dasharray:none;stroke-opacity:1"
       id="path96"
       inkscape:connector-curvature="0" /></g><g
     id="g98"
     transform="matrix(1,0,0,-1,0,219.007)"><path
       d="m 165.613,196.551 c 4.309,-11.91 1.817,-21.617 -1.211,-28.285"
       style="fill:none;stroke:#000000;stroke-width:1.03999996;stroke-linecap:butt;stroke-linejoin:miter;stroke-miterlimit:4;stroke-dasharray:none;stroke-opacity:1"
       id="path100"
       inkscape:connector-curvature="0" /></g><g
     id="g102"
     transform="matrix(0.454159,-1,-1,-0.454159,0,219.007)"><path
       d="m 205.18,-72.937 1.891,-1.895 -6.625,1.894 6.628,1.893 z"
       style="fill:#000000;fill-opacity:1;fill-rule:evenodd;stroke:#000000;stroke-width:0.47345999;stroke-linecap:butt;stroke-linejoin:miter;stroke-miterlimit:4;stroke-dasharray:none;stroke-opacity:1"
       id="path104"
       inkscape:connector-curvature="0" /></g><g
     id="g106"
     transform="matrix(1,0,0,-1,0,219.007)"><path
       d="m 28.613,203.672 v -2.301 l 0.102,-2.398 0.097,-2.403 0.102,-2.3 0.102,-2.399 0.199,-2.398 0.199,-2.301 0.199,-2.402 0.301,-2.297 0.301,-2.403 0.301,-2.398 0.296,-2.301 0.403,-2.398 0.398,-2.301 0.5,-2.402 0.5,-2.297 0.5,-2.301 0.5,-2.402 0.602,-2.297 0.597,-2.301 0.602,-2.301 0.602,-2.301 0.699,-2.3 0.699,-2.2 0.801,-2.3 0.801,-2.297 0.699,-2.203 0.898,-2.2 0.801,-2.3 0.898,-2.2 0.903,-2.199 1,-2.101 0.898,-2.2 1,-2.097 1,-2.203 1.102,-2.098 1,-2.102 1.097,-2.097 1.204,-2 1.097,-2.102 1.199,-2 1.204,-2 1.199,-2 1.199,-2 1.301,-1.898 1.301,-1.903 1.296,-1.898 1.403,-1.902 1.301,-1.899 1.398,-1.801 1.398,-1.8 1.403,-1.797 1.5,-1.703 1.5,-1.797 1.398,-1.703 1.5,-1.598 1.602,-1.699 1.5,-1.602 1.597,-1.601 1.602,-1.598 1.602,-1.5 1.597,-1.602 1.602,-1.398 1.699,-1.5 1.699,-1.402 1.602,-1.399 1.699,-1.398 1.801,-1.301 1.699,-1.301 1.699,-1.301 1.801,-1.199 1.801,-1.301 1.801,-1.097 1.699,-1.203 1.898,-1.098 1.801,-1.102 1.801,-1 1.898,-1 1.801,-1 1.898,-0.898 1.801,-0.902 1.903,-0.899 1.898,-0.898 1.898,-0.801 1.903,-0.699 1.898,-0.801 1.903,-0.699 2,-0.602 1.898,-0.601 1.898,-0.598 2,-0.602 1.903,-0.5 2,-0.5 1.898,-0.398 2,-0.402 1.903,-0.399 2,-0.301 1.898,-0.3 2,-0.297 M 61.312,209.57 v -2.398 l 0.102,-2.301 v -2.398 l 0.102,-2.403 0.097,-2.3 0.102,-2.399 0.199,-2.398 0.102,-2.301 0.199,-2.402 0.301,-2.399 0.199,-2.398 0.199,-2.301 0.301,-2.402 0.301,-2.399 0.398,-2.301 0.301,-2.398 0.398,-2.402 0.403,-2.297 0.398,-2.403 0.398,-2.3 0.5,-2.297 0.5,-2.403 0.5,-2.3 0.5,-2.297 0.5,-2.301 0.602,-2.301 0.602,-2.301 0.597,-2.199 0.602,-2.301 0.699,-2.199 0.602,-2.301 0.699,-2.199 0.699,-2.199 0.801,-2.199 0.699,-2.203 0.801,-2.098 0.801,-2.199 0.796,-2.102 0.801,-2.101 0.801,-2.098 0.898,-2.102 0.903,-2.097 0.898,-2 0.903,-2 0.898,-2.102 1,-1.898 0.898,-2 1,-1.903 1,-2 1,-1.898 1.102,-1.801 1,-1.898 1.102,-1.801 1.097,-1.801 1.102,-1.801 1.097,-1.699 1.102,-1.801 1.102,-1.699 1.199,-1.601 1.097,-1.7 1.204,-1.597 1.199,-1.602 1.199,-1.601 1.199,-1.5 1.301,-1.5 1.199,-1.5 1.199,-1.399 1.301,-1.398 1.301,-1.403 1.301,-1.398 1.199,-1.301 1.398,-1.301 1.301,-1.3 1.301,-1.2 1.301,-1.199 1.398,-1.199 1.301,-1.102 1.398,-1.097 1.301,-1.102 1.403,-1 1.398,-1 1.301,-0.898 1.398,-1 1.403,-0.903 1.398,-0.8 1.398,-0.899 1.403,-0.699 1.398,-0.801 1.5,-0.699 1.403,-0.699 1.398,-0.602 1.398,-0.601 1.5,-0.598 1.403,-0.5 1.398,-0.5 1.5,-0.5 1.403,-0.402 1.398,-0.399 1.5,-0.398 m -49,172.898 v -7.101 l 0.102,-2.297 v -2.403 l 0.097,-2.398 0.102,-2.402 0.097,-2.297 0.102,-2.403 0.102,-2.398 0.097,-2.402 0.199,-2.399 0.102,-2.398 0.199,-2.301 0.199,-2.402 0.204,-2.399 0.199,-2.398 0.199,-2.301 0.199,-2.402 0.199,-2.399 0.301,-2.301 0.199,-2.398 0.301,-2.301 0.301,-2.301 0.301,-2.3 0.301,-2.399 0.296,-2.301 0.301,-2.3 0.403,-2.297 0.296,-2.203 0.403,-2.297 0.398,-2.203 0.301,-2.297 0.398,-2.203 0.403,-2.2 0.5,-2.199 0.398,-2.199 0.403,-2.199 0.5,-2.102 0.398,-2.101 0.5,-2.2 0.5,-2.097 0.398,-2 0.5,-2.102 0.5,-2.101 0.602,-2 0.5,-2 0.5,-2 0.602,-1.899 0.5,-2 0.597,-1.898 0.5,-1.903 0.602,-1.8 0.597,-1.899 0.602,-1.801 0.602,-1.8 0.597,-1.797 0.602,-1.703 0.597,-1.797 0.704,-1.703 0.597,-1.598 0.602,-1.699 0.699,-1.602 0.602,-1.601 0.699,-1.5 0.699,-1.598 0.699,-1.5 0.602,-1.402 0.699,-1.5 0.699,-1.399 0.699,-1.398 0.704,-1.301 0.699,-1.301 0.699,-1.301 0.801,-1.3 0.699,-1.2 0.699,-1.199 0.699,-1.101 0.801,-1.2 0.699,-1.097 0.801,-1 0.699,-1 0.801,-1 0.699,-1 0.801,-0.903 0.699,-0.898 0.801,-0.801 0.801,-0.801 0.699,-0.8 0.801,-0.7 0.801,-0.699 0.699,-0.699 0.801,-0.602 0.801,-0.597 0.796,-0.602 0.704,-0.5 0.796,-0.5 0.801,-0.5 0.801,-0.398 m -2.699,174.297 v -9.399 l 0.097,-2.398 v -31 l 0.102,-2.301 V 155.57 l 0.102,-2.398 v -9.199 l 0.097,-2.203 v -9 l 0.102,-2.2 v -6.597 l 0.097,-2.102 v -6.301 l 0.102,-2.097 v -6.102 l 0.102,-2 v -4 l 0.097,-1.898 V 93.77 l 0.102,-1.797 v -3.602 l 0.097,-1.801 v -3.398 l 0.102,-1.699 v -3.301 l 0.102,-1.602 v -1.597 l 0.097,-1.602 v -3 l 0.102,-1.398 V 66.07 l 0.097,-1.3 v -1.399 l 0.102,-1.301 v -2.5 l 0.102,-1.199 V 56.07 l 0.097,-1.097 v -1.102 l 0.102,-1 v -2 l 0.097,-1 v -0.898 l 0.102,-0.801 V 47.27 l 0.102,-0.797 v -1.5 l 0.097,-0.703 v -0.598 l 0.102,-0.602 v -1.199 l 0.097,-0.5 v -0.398 l 0.102,-0.5 m 44,173.199 v -2.402 l -0.102,-2.297 v -4.703 l -0.097,-2.399 v -2.398 l -0.102,-2.403 -0.097,-2.398 -0.102,-2.301 -0.102,-2.398 -0.097,-2.403 -0.102,-2.398 -0.199,-2.402 -0.102,-2.399 -0.199,-2.301 -0.097,-2.398 -0.204,-2.402 -0.199,-2.399 -0.199,-2.301 -0.199,-2.398 -0.301,-2.301 -0.199,-2.398 -0.199,-2.301 -0.301,-2.402 -0.301,-2.297 -0.199,-2.301 -0.301,-2.301 -0.301,-2.301 -0.301,-2.3 -0.296,-2.297 -0.403,-2.203 -0.301,-2.297 -0.296,-2.203 -0.403,-2.297 -0.301,-2.203 -0.398,-2.2 -0.398,-2.199 -0.403,-2.101 -0.398,-2.2 -0.403,-2.097 -0.398,-2.102 -0.5,-2.101 -0.398,-2.098 -0.403,-2.102 -0.5,-2 -0.398,-2.097 -0.5,-2 -0.5,-2 -0.5,-1.903 -0.5,-2 -0.5,-1.898 -0.5,-1.902 -0.5,-1.899 -0.5,-1.801 -0.602,-1.8 -0.5,-1.797 -0.5,-1.801 -0.597,-1.801 -0.5,-1.699 -0.602,-1.699 -0.602,-1.703 -0.597,-1.598 -0.5,-1.602 -0.602,-1.597 -0.597,-1.602 -0.602,-1.5 -0.602,-1.5 -0.699,-1.5 -0.597,-1.398 -0.602,-1.5 -0.602,-1.301 -0.699,-1.402 -0.597,-1.297 -0.602,-1.301 -0.699,-1.301 -0.602,-1.199 -0.699,-1.199 -0.602,-1.102 -0.699,-1.199 -0.699,-1.102 -0.602,-1 -0.699,-1.097 -0.699,-0.903 -0.699,-1 -0.602,-0.898 -0.699,-0.902 -0.699,-0.899 -0.699,-0.801 -0.704,-0.8 -0.699,-0.7 -0.699,-0.699 -0.699,-0.699 -0.602,-0.602 -0.699,-0.597 -0.699,-0.602 -0.699,-0.5 -0.704,-0.5 -0.699,-0.5 -0.699,-0.398 m 86.301,169.597 v -2.3 l -0.102,-2.399 v -2.398 l -0.097,-2.301 -0.102,-2.402 -0.102,-2.399 -0.199,-2.301 -0.097,-2.398 -0.204,-2.402 -0.199,-2.399 -0.199,-2.301 -0.301,-2.398 -0.301,-2.402 -0.199,-2.399 -0.398,-2.301 -0.301,-2.398 -0.301,-2.301 -0.398,-2.398 -0.403,-2.301 -0.398,-2.402 -0.5,-2.297 -0.398,-2.403 -0.5,-2.3 -0.5,-2.297 -0.5,-2.301 -0.602,-2.301 -0.5,-2.301 -0.602,-2.199 -0.597,-2.301 -0.602,-2.3 -0.699,-2.2 -0.602,-2.199 -0.699,-2.199 -0.699,-2.199 -0.699,-2.203 -0.699,-2.2 -0.801,-2.097 -0.699,-2.203 -0.801,-2.098 -0.801,-2.102 -0.898,-2.097 -0.801,-2.102 -0.801,-2 -0.898,-2 -0.903,-2 -0.898,-2 -0.903,-2 -1,-2 -0.898,-1.898 -1,-1.903 -1,-1.898 -1,-1.801 -1,-1.801 -1,-1.898 -1.102,-1.699 -1,-1.801 -1.097,-1.699 -1.102,-1.703 -1.097,-1.7 -1.102,-1.699 -1.102,-1.601 -1.097,-1.598 -1.199,-1.602 -1.102,-1.5 -1.199,-1.5 -1.199,-1.5 -1.204,-1.5 -1.199,-1.398 -1.199,-1.402 -1.199,-1.399 -1.199,-1.301 -1.301,-1.3 -1.199,-1.297 -1.301,-1.203 -1.301,-1.2 -1.199,-1.199 -1.301,-1.101 -1.301,-1.098 -1.301,-1.102 -1.296,-1 -1.301,-1 -1.301,-1 -1.398,-0.898 -1.301,-0.902 -1.301,-0.899 -1.398,-0.801 -1.301,-0.8 -1.301,-0.797 -1.398,-0.703 -1.301,-0.7 -1.403,-0.699 -1.398,-0.601 -1.301,-0.598 -1.398,-0.5 -1.403,-0.5 -1.296,-0.5 -1.403,-0.402 -1.398,-0.399 -1.301,-0.398 m -123.301,163.199 1.403,0.301 1.398,0.398 1.5,0.301 1.398,0.301 1.5,0.398 1.602,0.301 1.5,0.301 1.602,0.297 1.597,0.3 1.699,0.301 1.704,0.301 1.699,0.301 1.699,0.297 1.801,0.3 1.699,0.2 1.801,0.3 1.898,0.301 1.801,0.199 1.898,0.301 1.903,0.199 1.898,0.301 2,0.199 1.903,0.301 2,0.199 2,0.2 2.097,0.203 2,0.199 2.102,0.199 2.097,0.199 2.102,0.2 2.102,0.203 2.097,0.199 2.199,0.199 2.102,0.199 2.199,0.102 2.199,0.199 2.301,0.102 2.199,0.199 2.204,0.098 2.296,0.203 2.301,0.097 2.199,0.102 2.301,0.098 2.301,0.203 2.301,0.097 2.398,0.102 h 2.301 l 2.301,0.098 2.398,0.101 2.301,0.102 h 2.398 l 2.301,0.097 2.403,0.102 h 4.796 l 2.301,0.098 h 21.5 l 2.403,-0.098 h 4.699 l 2.398,-0.102 2.403,-0.097 h 2.296 l 2.403,-0.102 2.301,-0.101 2.398,-0.098 h 2.301 l 2.301,-0.102 2.296,-0.097 2.301,-0.203 2.301,-0.098 2.301,-0.102 2.301,-0.097 2.199,-0.203 2.301,-0.098 2.199,-0.199 2.199,-0.102 2.199,-0.199 2.199,-0.102 2.204,-0.199 2.097,-0.199 2.199,-0.199 2.102,-0.203 2.102,-0.2 2.097,-0.199 2,-0.199 2.102,-0.199 2,-0.203 2,-0.2 2,-0.199 2,-0.301 m -203.602,-52.898 1.403,0.301 1.296,0.297 1.403,0.3 1.398,0.301 1.403,0.301 1.5,0.301 1.5,0.297 1.5,0.3 1.5,0.301 1.597,0.301 1.602,0.301 1.597,0.297 1.602,0.203 1.699,0.297 1.699,0.3 1.704,0.2 1.796,0.3 1.704,0.2 1.796,0.3 1.801,0.2 1.801,0.3 1.898,0.2 1.903,0.203 1.801,0.199 2,0.199 1.898,0.199 1.898,0.2 2,0.203 2,0.199 2,0.199 2,0.199 2,0.2 2.102,0.101 2.102,0.199 2,0.2 2.097,0.101 2.102,0.199 2.199,0.102 2.102,0.098 2.097,0.203 2.199,0.097 2.204,0.102 2.097,0.098 2.199,0.101 2.204,0.102 2.199,0.097 2.199,0.102 2.301,0.098 2.199,0.101 h 2.199 l 2.301,0.102 h 2.199 l 2.301,0.097 h 2.199 l 2.301,0.102 h 4.5 l 2.301,0.098 h 11.301 l 2.296,-0.098 h 4.5 l 2.301,-0.102 h 2.301 l 2.199,-0.097 h 2.301 l 2.199,-0.102 h 2.199 l 2.301,-0.101 2.199,-0.098 2.204,-0.102 2.199,-0.097 2.199,-0.102 2.199,-0.101 2.199,-0.098 2.102,-0.102 2.199,-0.097 2.102,-0.203 2.199,-0.098 2.102,-0.102 2.097,-0.199 2.102,-0.101 2.097,-0.2 2,-0.199 2.102,-0.101 2,-0.2 2.102,-0.199 2,-0.199 1.898,-0.199 2,-0.203 2,-0.2 1.898,-0.199 1.903,-0.199 1.898,-0.199 1.903,-0.203 m -181.801,-49.598 1.097,0.301 1.102,0.297 1.199,0.3 1.199,0.2 1.204,0.3 1.199,0.2 1.301,0.3 1.296,0.2 1.301,0.3 1.301,0.2 1.398,0.3 1.403,0.2 1.398,0.203 1.403,0.297 1.398,0.203 1.5,0.199 1.5,0.199 1.5,0.199 1.5,0.2 1.5,0.203 1.602,0.199 1.5,0.199 1.597,0.199 1.602,0.2 1.699,0.203 1.602,0.199 1.699,0.098 1.597,0.203 1.704,0.199 1.699,0.098 1.699,0.203 1.801,0.097 1.699,0.2 1.801,0.101 1.699,0.102 1.801,0.199 1.801,0.098 1.796,0.101 1.801,0.102 1.903,0.097 1.796,0.2 1.801,0.101 h 1.903 l 1.898,0.102 1.801,0.097 1.898,0.102 1.903,0.098 h 1.898 l 1.898,0.101 1.903,0.102 h 1.898 l 1.903,0.097 h 3.796 l 2,0.102 h 7.704 l 1.898,0.098 h 1.898 l 2,-0.098 h 7.704 l 1.898,-0.102 h 3.801 l 1.898,-0.097 h 2 l 1.903,-0.102 1.898,-0.101 h 1.801 l 1.898,-0.098 1.903,-0.102 1.898,-0.097 1.801,-0.102 h 1.898 l 1.801,-0.101 1.898,-0.2 1.801,-0.097 1.801,-0.102 1.801,-0.101 1.801,-0.098 1.796,-0.199 1.801,-0.102 1.699,-0.101 1.801,-0.2 1.699,-0.097 1.704,-0.203 1.699,-0.098 1.699,-0.199 1.699,-0.203 1.602,-0.098 1.699,-0.199 1.602,-0.203 1.597,-0.2 1.602,-0.199 M 79.414,77.57 l 0.801,0.2 0.898,0.203 0.801,0.199 0.898,0.199 0.903,0.199 0.898,0.2 0.903,0.203 0.898,0.199 1,0.098 0.898,0.203 1,0.199 1,0.199 1,0.102 1.102,0.199 1,0.199 1.102,0.102 1.097,0.199 1,0.098 1.102,0.203 1.199,0.097 1.102,0.2 1.097,0.101 1.199,0.199 1.204,0.102 1.097,0.098 1.199,0.101 1.204,0.199 1.296,0.102 1.204,0.098 1.199,0.101 1.301,0.102 1.199,0.097 1.301,0.2 1.296,0.101 1.301,0.102 h 1.199 l 1.301,0.097 1.403,0.102 1.296,0.098 1.301,0.101 1.301,0.102 h 1.398 l 1.301,0.097 1.403,0.102 h 1.296 l 1.403,0.098 h 1.398 l 1.301,0.101 h 1.398 l 1.403,0.102 h 1.398 l 1.403,0.097 h 4.199 l 1.398,0.102 h 12.602 l 1.398,-0.102 h 4.199 l 1.301,-0.097 h 1.403 l 1.398,-0.102 h 1.398 l 1.403,-0.101 h 1.301 l 1.398,-0.098 h 1.398 l 1.301,-0.102 1.403,-0.097 h 1.296 l 1.301,-0.102 1.403,-0.101 1.296,-0.098 1.301,-0.102 1.301,-0.097 h 1.301 l 1.301,-0.102 1.199,-0.101 1.301,-0.2 1.296,-0.097 1.204,-0.102 1.296,-0.101 1.204,-0.098 1.199,-0.102 1.199,-0.199 1.199,-0.101 1.199,-0.098 1.102,-0.102 1.199,-0.199 m -88.801,-29 0.403,0.102 0.398,0.097 0.5,0.102 0.403,0.098 0.5,0.101 0.5,0.102 0.5,0.097 0.5,0.102 0.5,0.098 0.5,0.101 0.5,0.102 0.5,0.097 0.5,0.102 0.597,0.098 h 0.5 l 0.602,0.101 0.597,0.102 0.5,0.097 0.602,0.102 h 0.602 l 0.597,0.098 0.602,0.101 0.597,0.102 h 0.602 l 0.602,0.097 0.699,0.102 h 0.597 l 0.602,0.098 0.699,0.101 h 0.602 l 0.699,0.102 h 0.699 l 0.602,0.097 0.699,0.102 h 0.699 l 0.602,0.098 h 1.398 l 0.699,0.101 h 0.704 l 0.699,0.102 h 1.398 l 0.699,0.097 h 1.5 l 0.704,0.102 h 2.199 l 0.699,0.098 h 4.398 l 0.704,0.101 h 3.699 l 0.699,-0.101 h 4.5 l 0.699,-0.098 h 2.199 l 0.704,-0.102 h 1.398 l 0.699,-0.097 h 1.403 l 0.699,-0.102 h 0.699 l 0.699,-0.101 h 1.403 l 0.699,-0.098 h 0.597 l 0.704,-0.102 0.699,-0.097 h 0.597 l 0.704,-0.102 h 0.699 l 0.597,-0.101 0.602,-0.098 h 0.699 l 0.602,-0.102 0.597,-0.097 h 0.602 l 0.602,-0.102"
       style="fill:none;stroke:#000000;stroke-width:0.5;stroke-linecap:butt;stroke-linejoin:miter;stroke-miterlimit:10;stroke-dasharray:1, 1.5;stroke-dashoffset:0;stroke-opacity:1"
       id="path108"
       inkscape:connector-curvature="0" /></g><g
     id="g110"
     transform="matrix(1,0,0,-1,0,219.007)"><path
       d="m 15.613,201.973 -11.597,4.699 12.398,1.699 m 135.5,-19.699 -147.898,18"
       style="fill:none;stroke:#000000;stroke-width:1.5;stroke-linecap:butt;stroke-linejoin:miter;stroke-miterlimit:10;stroke-dasharray:none;stroke-opacity:1"
       id="path112"
       inkscape:connector-curvature="0" /></g><g
     id="g114"
     transform="matrix(1,0,0,-1,0,219.007)"><path
       d="m 15.613,201.973 -11.597,4.699 12.398,1.699"
       style="fill:none;stroke:#000000;stroke-width:1.5;stroke-linecap:butt;stroke-linejoin:miter;stroke-miterlimit:10;stroke-dasharray:none;stroke-opacity:1"
       id="path116"
       inkscape:connector-curvature="0" /></g><g
     id="g118"
     transform="matrix(1,0,0,-1,0,219.007)"><path
       d="m 242.914,214.57 12.5,-0.199 -11,-6 m -92.5,-19.699 103.5,25.699"
       style="fill:none;stroke:#000000;stroke-width:1.5;stroke-linecap:butt;stroke-linejoin:miter;stroke-miterlimit:10;stroke-dasharray:none;stroke-opacity:1"
       id="path120"
       inkscape:connector-curvature="0" /></g><g
     id="g122"
     transform="matrix(1,0,0,-1,0,219.007)"><path
       d="m 242.914,214.57 12.5,-0.199 -11,-6"
       style="fill:none;stroke:#000000;stroke-width:1.5;stroke-linecap:butt;stroke-linejoin:miter;stroke-miterlimit:10;stroke-dasharray:none;stroke-opacity:1"
       id="path124"
       inkscape:connector-curvature="0" /></g><g
     id="g126"
     transform="matrix(1,0,0,-1,0,219.007)"><path
       d="m 155.113,22.973 -3.199,-12.102 -3.199,12.102 m 3.199,165.699 V 10.871"
       style="fill:none;stroke:#000000;stroke-width:1.5;stroke-linecap:butt;stroke-linejoin:miter;stroke-miterlimit:10;stroke-dasharray:none;stroke-opacity:1"
       id="path128"
       inkscape:connector-curvature="0" /></g><g
     id="g130"
     transform="matrix(1,0,0,-1,0,219.007)"><path
       d="m 155.113,22.973 -3.199,-12.102 -3.199,12.102"
       style="fill:none;stroke:#000000;stroke-width:1.5;stroke-linecap:butt;stroke-linejoin:miter;stroke-miterlimit:10;stroke-dasharray:none;stroke-opacity:1"
       id="path132"
       inkscape:connector-curvature="0" /></g><g
     id="g136"
     transform="matrix(1,0,0,-1,0,219.007)"><path
       d="m 187.516,121.77 v 87.101 l -35.602,-20.199 35.602,-66.902"
       style="fill:none;stroke:#000000;stroke-width:0.75;stroke-linecap:butt;stroke-linejoin:miter;stroke-miterlimit:10;stroke-dasharray:2, 3;stroke-dashoffset:0;stroke-opacity:1"
       id="path138"
       inkscape:connector-curvature="0" /></g><g
     id="g170"
     transform="matrix(1,0,0,-1,0,219.007)"><path
       d="m 60.312,100.871 0.204,-0.5 0.296,-0.601 0.204,-0.598 0.199,-0.602 0.301,-0.5 0.199,-0.597 0.199,-0.602 0.301,-0.5 0.199,-0.601 0.301,-0.598 0.199,-0.5 0.301,-0.602 0.199,-0.597 0.301,-0.5 0.199,-0.602 0.199,-0.5 0.301,-0.601 0.301,-0.598 0.199,-0.5 0.301,-0.602 0.199,-0.5 0.301,-0.597 0.199,-0.5 0.301,-0.602 0.199,-0.5 0.301,-0.601 0.301,-0.5 0.199,-0.598 0.301,-0.5 0.199,-0.5 0.301,-0.602 0.296,-0.5 0.204,-0.597 0.296,-0.5 0.301,-0.5 0.301,-0.602 0.199,-0.5 0.301,-0.5 0.301,-0.601 0.199,-0.5 0.301,-0.5 0.301,-0.5 0.296,-0.598 0.204,-0.5 0.296,-0.5 0.301,-0.5 0.301,-0.602 0.301,-0.5 0.301,-0.5 0.199,-0.5 0.301,-0.5 0.296,-0.5 0.301,-0.5 0.301,-0.597 0.301,-0.5 0.301,-0.5 0.296,-0.5 0.204,-0.5 0.296,-0.5 0.301,-0.5 0.301,-0.5 0.301,-0.5 0.301,-0.5 0.296,-0.5 0.301,-0.5 0.301,-0.5 0.301,-0.403 0.301,-0.5 0.296,-0.5 0.301,-0.5 0.301,-0.5 0.301,-0.5 0.301,-0.5 0.296,-0.398 0.301,-0.5 0.301,-0.5 0.301,-0.5 0.398,-0.402 0.301,-0.5 0.301,-0.5 0.301,-0.5 0.296,-0.399 0.301,-0.5 0.301,-0.5 0.301,-0.398 0.398,-0.5 0.301,-0.403 0.301,-0.5 0.301,-0.5 0.296,-0.398 0.403,-0.5 m -0.403,0.5 h 0.301 l 0.403,0.098 h 0.296 l 0.301,0.101 h 0.602 l 0.301,0.102 h 0.597 l 0.403,0.097 h 0.296 l 0.301,0.102 h 0.602 l 0.301,0.098 h 0.398 l 0.301,0.101 h 0.597 l 0.403,0.102 h 0.597 l 0.301,0.097 h 0.699 l 0.301,0.102 h 0.699 l 0.301,0.098 h 0.301 l 0.398,0.101 h 0.602 l 0.398,0.102 h 0.602 l 0.398,0.097 h 0.602 l 0.398,0.102 h 1 l 0.301,0.098 h 0.699 l 0.301,0.101 h 0.699 l 0.403,0.102 h 0.699 l 0.301,0.097 h 1.097 l 0.301,0.102 h 0.699 l 0.301,0.098 h 1.102 l 0.301,0.101 h 0.796 l 0.301,0.102 h 1.102 l 0.301,0.097 h 1.097 l 0.403,0.102 h 1 l 0.398,0.098 h 1.102 l 0.296,0.101 h 1.5 l 0.301,0.102 h 1.102 m -13.903,47.797 0.204,-0.598 0.097,-0.5 0.102,-0.602 0.097,-0.597 0.204,-0.602 0.097,-0.601 0.102,-0.598 0.199,-0.5 0.102,-0.602 0.097,-0.597 0.102,-0.602 0.199,-0.5 0.102,-0.601 0.097,-0.598 0.199,-0.602 0.102,-0.5 0.102,-0.597 0.199,-0.602 0.097,-0.5 0.204,-0.601 0.097,-0.598 0.102,-0.5 0.199,-0.602 0.102,-0.5 0.199,-0.597 0.097,-0.602 0.102,-0.5 0.199,-0.601 0.102,-0.5 0.199,-0.598 0.102,-0.5 0.097,-0.602 0.199,-0.5 0.102,-0.597 0.199,-0.5 0.102,-0.602 0.199,-0.5 0.102,-0.601 0.199,-0.5 0.097,-0.5 0.204,-0.598 0.097,-0.5 0.199,-0.602 0.102,-0.5 0.199,-0.5 0.102,-0.597 0.199,-0.5 0.102,-0.5 0.199,-0.5 0.097,-0.602 0.204,-0.5 0.097,-0.5 0.199,-0.5 0.204,-0.601 0.097,-0.5 0.199,-0.5 0.102,-0.5 0.199,-0.5 0.102,-0.598 0.199,-0.5 0.199,-0.5 0.102,-0.5 0.199,-0.5 0.102,-0.5 0.199,-0.5 0.199,-0.5 0.102,-0.5 0.199,-0.5 0.097,-0.5 0.204,-0.5 0.199,-0.5 0.097,-0.5 0.204,-0.5 0.199,-0.5 0.097,-0.5 0.204,-0.5 0.199,-0.5 0.097,-0.5 0.204,-0.5 0.199,-0.402 0.097,-0.5 0.204,-0.5 0.199,-0.5 0.097,-0.5 0.204,-0.399 0.199,-0.5 0.199,-0.5 0.102,-0.398 0.199,-0.5 0.199,-0.5 0.102,-0.5 m -55.704,44.398 0.403,0.102 0.398,0.097 h 0.5 l 0.403,0.102 h 0.398 l 0.5,0.098 h 0.398 l 0.403,0.101 h 0.5 l 0.398,0.102 h 0.403 l 0.5,0.097 h 0.398 l 0.398,0.102 h 0.5 l 0.403,0.098 h 0.5 l 0.398,0.101 0.403,0.102 h 0.5 l 0.398,0.097 h 0.5 l 0.398,0.102 h 0.903 l 0.5,0.098 h 0.398 l 0.5,0.101 h 0.403 l 0.5,0.102 h 0.5 l 0.398,0.097 h 0.5 l 0.398,0.102 h 0.5 l 0.403,0.098 h 0.5 l 0.5,0.101 h 0.398 l 0.5,0.102 h 0.903 l 0.5,0.097 h 0.5 l 0.398,0.102 h 0.5 l 0.5,0.098 h 0.898 l 0.5,0.101 h 0.5 l 0.403,0.102 h 1 l 0.5,0.097 h 0.398 l 0.5,0.102 h 1 l 0.5,0.098 h 0.403 l 0.5,0.101 h 1 l 0.5,0.102 h 0.5 l 0.398,0.097 h 1 l 0.5,0.102 h 1 l 0.5,0.098 h 1 l 0.5,0.101 h 0.898 l 0.5,0.102 h 1 l 0.5,0.097 h 1 l 0.5,0.102 h 1 l 0.5,0.098 h 1 l 0.5,0.101 m 9.403,16.699 0.097,-0.5 0.102,-0.398 0.102,-0.5 0.097,-0.5 0.102,-0.402 0.097,-0.5 0.204,-0.5 0.097,-0.399 0.102,-0.5 0.097,-0.398 0.102,-0.5 0.102,-0.5 0.097,-0.403 0.102,-0.5 0.097,-0.398 0.102,-0.5 0.102,-0.5 0.097,-0.402 0.102,-0.5 0.097,-0.399 0.204,-0.5 0.097,-0.398 0.102,-0.5 0.097,-0.403 0.102,-0.5 0.102,-0.398 0.097,-0.402 0.102,-0.5 0.097,-0.399 0.204,-0.5 0.097,-0.398 0.102,-0.5 0.097,-0.403 0.102,-0.398 0.102,-0.5 0.199,-0.402 0.097,-0.399 0.102,-0.5 0.102,-0.398 0.097,-0.403 0.102,-0.5 0.199,-0.398 0.102,-0.402 0.097,-0.5 0.102,-0.399 0.097,-0.398 0.204,-0.403 0.097,-0.5 0.102,-0.398 0.097,-0.402 0.204,-0.399 0.097,-0.5 0.102,-0.398 0.097,-0.403 0.204,-0.398 0.097,-0.402 0.102,-0.399 0.097,-0.5 0.204,-0.398 0.097,-0.403 0.102,-0.398 0.097,-0.402 0.204,-0.399 0.097,-0.398 0.102,-0.403 0.199,-0.398 0.102,-0.402 0.097,-0.399 0.102,-0.398 0.199,-0.403 0.102,-0.398 0.097,-0.402 0.199,-0.399 0.102,-0.398 0.102,-0.403 0.199,-0.398 0.097,-0.402 0.102,-0.399 0.199,-0.398 0.102,-0.301 0.097,-0.402 0.204,-0.399 0.097,-0.398 0.199,-0.403 0.102,-0.398 0.102,-0.301 0.199,-0.398 0.097,-0.403 0.102,-0.398 0.199,-0.301 0.102,-0.398 m -44.602,35.5 h 0.301 l 0.398,0.097 h 0.301 l 0.403,0.102 h 0.296 l 0.403,0.098 h 0.699 l 0.301,0.101 h 0.301 l 0.398,0.102 h 0.301 l 0.398,0.097 h 0.699 l 0.301,0.102 h 0.403 l 0.398,0.098 h 0.699 l 0.301,0.101 h 0.398 l 0.301,0.102 h 0.801 l 0.301,0.097 h 0.398 l 0.301,0.102 h 0.801 l 0.301,0.098 h 0.796 l 0.301,0.101 h 0.403 l 0.398,0.102 h 0.699 l 0.403,0.097 h 0.699 l 0.398,0.102 h 0.699 l 0.403,0.098 h 0.801 l 0.296,0.101 h 0.403 l 0.398,0.102 h 1.102 l 0.398,0.097 h 0.801 l 0.398,0.102 h 0.704 l 0.398,0.098 h 0.801 l 0.398,0.101 h 0.801 l 0.301,0.102 h 1.199 l 0.398,0.097 h 0.801 l 0.403,0.102 h 1.199 l 0.398,0.098 h 0.699 l 0.403,0.101 h 1.199 l 0.398,0.102 h 1.204 l 0.398,0.097 h 1.199 m -52.301,-20.699 18.301,17.602 m 37.301,-61.5 7.199,26.398 m -20.801,21.399 9.903,16.8"
       style="fill:none;stroke:#000000;stroke-width:0.75;stroke-linecap:butt;stroke-linejoin:miter;stroke-miterlimit:10;stroke-dasharray:none;stroke-opacity:1"
       id="path172"
       inkscape:connector-curvature="0" /></g><g
     id="g174"
     transform="matrix(1,0,0,-1,0,219.007)"><path
       d="m 98.613,81.07 h 0.301 l 0.199,0.102 h 0.5 l 0.301,0.098 h 0.5 l 0.199,0.101 h 0.801 l 0.199,0.102 h 0.602 l 0.199,0.097 h 0.5 l 0.301,0.102 h 0.801 l 0.199,0.098 h 0.5 l 0.301,0.101 h 0.796 l 0.301,0.102 h 0.5 l 0.199,0.097 h 0.801 l 0.301,0.102 h 0.801 l 0.301,0.098 h 0.796 l 0.301,0.101 h 0.801 l 0.301,0.102 h 0.801 l 0.296,0.097 h 0.801 l 0.301,0.102 h 0.801 l 0.301,0.098 h 1.097 l 0.301,0.101 h 1.102 l 0.296,0.102 h 0.903 l 0.301,0.097 h 1.097 l 0.301,0.102 h 1.398 l 0.301,0.098 h 1.199 l 0.301,0.101 h 0.301 M 85.312,54.172 98.613,81.07 m -20,37.403 0.199,-0.5 0.204,-0.403 0.199,-0.5 0.199,-0.398 0.102,-0.5 0.199,-0.5 0.199,-0.402 0.199,-0.5 0.199,-0.399 0.204,-0.5 0.199,-0.398 0.199,-0.5 0.199,-0.403 0.199,-0.5 0.204,-0.398 0.199,-0.5 0.199,-0.402 0.199,-0.5 0.199,-0.399 0.204,-0.398 0.199,-0.5 0.199,-0.403 0.199,-0.5 0.199,-0.398 0.204,-0.5 0.199,-0.402 0.199,-0.399 0.301,-0.5 0.199,-0.398 0.199,-0.403 0.199,-0.5 0.204,-0.398 0.199,-0.402 0.199,-0.5 0.199,-0.399 0.301,-0.398 0.199,-0.403 0.199,-0.5 0.204,-0.398 0.199,-0.402 0.199,-0.399 0.301,-0.5 0.199,-0.398 0.199,-0.403 0.199,-0.398 0.301,-0.402 0.199,-0.399 0.204,-0.5 0.199,-0.398 0.301,-0.403 0.199,-0.398 0.199,-0.402 0.199,-0.399 0.301,-0.398 0.199,-0.403 0.199,-0.398 0.301,-0.402 0.199,-0.399 0.204,-0.398 0.296,-0.403 0.204,-0.398 0.199,-0.402 0.301,-0.399 0.199,-0.398 0.301,-0.403 0.199,-0.398 0.199,-0.402 0.301,-0.399 0.199,-0.398 0.301,-0.403 0.199,-0.398 0.199,-0.402 0.301,-0.297 0.199,-0.403 0.301,-0.398 0.199,-0.402 0.301,-0.399 0.199,-0.398 0.301,-0.301 0.199,-0.402 0.301,-0.399 0.199,-0.398 0.301,-0.301 0.199,-0.402 0.301,-0.399 0.199,-0.301 0.301,-0.398 0.199,-0.402 0.301,-0.297 0.199,-0.403 0.301,-0.398"
       style="fill:none;stroke:#000000;stroke-width:0.75;stroke-linecap:butt;stroke-linejoin:miter;stroke-miterlimit:10;stroke-dasharray:4, 2;stroke-dashoffset:0;stroke-opacity:1"
       id="path176"
       inkscape:connector-curvature="0" /></g><text
     transform="scale(1,-1)"
     id="text3273"
     y="-187.01474"
     x="6.5619206"
     style="font-style:normal;font-variant:normal;font-weight:normal;font-stretch:normal;line-height:0%;font-family:serif;-inkscape-font-specification:Serif;letter-spacing:0px;word-spacing:0px;fill:#000000;fill-opacity:1;stroke:none"
     xml:space="preserve"><tspan
       style="font-size:16px;line-height:1.25;font-family:serif"
       y="-187.01474"
       x="6.5619206"
       id="tspan3275"
       sodipodi:role="line">a tesseroid</tspan></text>
<path
     inkscape:connector-curvature="0"
     id="path3277"
     d="M 45.277256,184.38997 74.149709,154.86133"
     style="fill:none;stroke:#000000;stroke-width:1.43999994;stroke-linecap:butt;stroke-linejoin:miter;stroke-miterlimit:4;stroke-dasharray:none;stroke-opacity:1;marker-end:url(#Arrow1Mend)" /></g></g></svg>